<svg version="1.1" xmlns="http://www.w3.org/2000/svg" xmlns:xlink="http://www.w3.org/1999/xlink" width="48" height="48"><defs><linearGradient x1="11.67152" y1="11.67152" x2="57.89524" y2="57.89524" gradientUnits="userSpaceOnUse" id="color-1"><stop offset="0.18" stop-color="#000000" stop-opacity="0.79"></stop><stop offset="1" stop-color="#000000" stop-opacity="0"></stop></linearGradient><filter id="dropshadow-base"><feColorMatrix type="matrix" values="0 0 0 0 0  0 0 0 0 0  0 0 0 0 0  0 0 0 .8 0"></feColorMatrix> <feOffset dx="0" dy="1"></feOffset> <feGaussianBlur stdDeviation="1"></feGaussianBlur> <feComposite in="SourceGraphic"></feComposite></filter><filter id="dropshadow-banner" x="-10%" y="-10%" width="120%" height="130%"><feColorMatrix type="matrix" values="0 0 0 0 0  0 0 0 0 0  0 0 0 0 0  0 0 0 .4 0"></feColorMatrix> <feOffset dx="0" dy="1"></feOffset> <feGaussianBlur stdDeviation="0.5"></feGaussianBlur> <feComposite in="SourceGraphic"></feComposite></filter></defs><g fill="none" fill-rule="nonzero" stroke="none" stroke-width="none" stroke-linecap="butt" stroke-linejoin="miter" stroke-miterlimit="10" stroke-dasharray="" stroke-dashoffset="0" font-family="none" font-weight="none" font-size="none" text-anchor="none" style="mix-blend-mode: normal"><path d="M2,24c0,-12.15026 9.84974,-22 22,-22c12.15026,0 22,9.84974 22,22c0,12.15026 -9.84974,22 -22,22c-12.15026,0 -22,-9.84974 -22,-22z" id="base 1 13" fill="#88ae8a" stroke-width="1"></path><path d="M11.67152,33.86279v-17.25987h2.4657l6.16424,6.16424v-2.4657l2.4657,0l-6.16424,-6.16424c0,-1.3623 1.1034,-2.4657 2.4657,-2.4657h14.79418c0.68115,0 1.29757,0.27585 1.74371,0.72199l10.35871,10.35871c0.02309,0.41299 0.03479,0.82902 0.03479,1.24778c0,12.15026 -9.84974,22 -22,22c-0.41876,0 -0.83479,-0.0117 -1.24778,-0.03479l-10.35871,-10.35871l0,0c-0.44614,-0.44614 -0.72199,-1.06256 -0.72199,-1.74371z" fill="url(#color-1)" stroke-width="1"></path><path d="M14.13721,16.60291h-2.4657v17.25987c0,1.3623 1.1034,2.4657 2.4657,2.4657h17.25987v-2.4657h-17.25987zM33.86279,11.67152h-14.79418c-1.3623,0 -2.4657,1.1034 -2.4657,2.4657v14.79418c0,1.3623 1.1034,2.4657 2.4657,2.4657h14.79418c1.3623,0 2.4657,-1.1034 2.4657,-2.4657v-14.79418c0,-1.3623 -1.1034,-2.4657 -2.4657,-2.4657zM32.62994,22.76715h-12.32848v-2.4657h12.32848zM27.69854,27.69854h-7.39709v-2.4657h7.39709zM32.62994,17.83576h-12.32848v-2.4657h12.32848z" fill="none" stroke-width="0"></path><path d="M14.13721,33.86279h17.25987v2.4657h-17.25987c-1.3623,0 -2.4657,-1.1034 -2.4657,-2.4657v-17.25987h2.4657zM36.32848,14.13721v14.79418c0,1.3623 -1.1034,2.4657 -2.4657,2.4657h-14.79418c-1.3623,0 -2.4657,-1.1034 -2.4657,-2.4657v-14.79418c0,-1.3623 1.1034,-2.4657 2.4657,-2.4657h14.79418c1.3623,0 2.4657,1.1034 2.4657,2.4657zM32.62994,20.30146h-12.32848v2.4657h12.32848zM27.69854,25.23285h-7.39709v2.4657h7.39709zM32.62994,15.37006h-12.32848v2.4657h12.32848z" fill="#ffffff" stroke-width="0"></path><path d="M2,24c0,-12.15026 9.84974,-22 22,-22c12.15026,0 22,9.84974 22,22c0,12.15026 -9.84974,22 -22,22c-12.15026,0 -22,-9.84974 -22,-22z" id="base 1 9 1" fill="none" stroke-width="1"></path><path d="M2,24c0,-12.15026 9.84974,-22 22,-22c12.15026,0 22,9.84974 22,22c0,12.15026 -9.84974,22 -22,22c-12.15026,0 -22,-9.84974 -22,-22z" id="base 1 5 1" fill="none" stroke-width="1"></path><path d="M2,24c0,-12.15026 9.84974,-22 22,-22c12.15026,0 22,9.84974 22,22c0,12.15026 -9.84974,22 -22,22c-12.15026,0 -22,-9.84974 -22,-22z" id="base 1 1 1" fill="none" stroke-width="1"></path><g fill="#000000" stroke-width="1" font-family="Roboto, sans-serif" font-weight="400" font-size="14" text-anchor="start"></g><rect x="2" y="2" width="44" height="22" fill="none" stroke-width="1"></rect><path d="M2,24v-22h44v22z" fill="none" stroke-width="1"></path><path d="M2,24v-22h44v22z" fill="none" stroke-width="1"></path><path d="M2,24v-22h44v22z" fill="none" stroke-width="1"></path><path d="M2,24v-22h44v22z" fill="none" stroke-width="1"></path><g fill="#000000" stroke-width="1" font-family="Roboto, sans-serif" font-weight="400" font-size="14" text-anchor="start"></g><rect x="2" y="2" width="44" height="22" fill="none" stroke-width="1"></rect><path d="M2,24v-22h44v22z" fill="none" stroke-width="1"></path><path d="M2,24v-22h44v22z" fill="none" stroke-width="1"></path><path d="M2,24v-22h44v22z" fill="none" stroke-width="1"></path><path d="M2,24v-22h44v22z" fill="none" stroke-width="1"></path><g fill="#000000" stroke-width="1" font-family="Roboto, sans-serif" font-weight="400" font-size="14" text-anchor="start"></g><rect x="2" y="2" width="44" height="22" fill="none" stroke-width="1"></rect><path d="M2,24v-22h44v22z" fill="none" stroke-width="1"></path><path d="M2,24v-22h44v22z" fill="none" stroke-width="1"></path><path d="M2,24v-22h44v22z" fill="none" stroke-width="1"></path><path d="M2,24v-22h44v22z" fill="none" stroke-width="1"></path></g></svg>